<svg xmlns="http://www.w3.org/2000/svg" width="1100" height="770" viewBox="0 0 1100 770"><rect width="100%" height="100%" fill="#ffffff"/><text x="25" y="35" font-family="Times New Roman" font-size="24" font-weight="bold" fill="#000000">Retail entity relationships | circle optional, fork many</text><path d="M305.0,140.0 L425.0,140.0" stroke="#000000" stroke-width="2" fill="none"/><path d="M312.0,147.0 L312.0,133.0" stroke="#000000" stroke-width="2"/><path d="M318.0,147.0 L318.0,133.0" stroke="#000000" stroke-width="2"/><circle cx="329.0" cy="140.0" r="5" fill="#ffffff" stroke="#000000" stroke-width="2"/><path d="M409.0,140.0 L425.0,148.0" stroke="#000000" stroke-width="2"/><path d="M409.0,140.0 L425.0,140.0" stroke="#000000" stroke-width="2"/><path d="M409.0,140.0 L425.0,132.0" stroke="#000000" stroke-width="2"/><circle cx="401.0" cy="140.0" r="5" fill="#ffffff" stroke="#000000" stroke-width="2"/><path d="M180.0,185.0 L180.0,360.0" stroke="#000000" stroke-width="2" fill="none"/><path d="M173.0,192.0 L187.0,192.0" stroke="#000000" stroke-width="2"/><path d="M173.0,198.0 L187.0,198.0" stroke="#000000" stroke-width="2"/><path d="M187.0,353.0 L173.0,353.0" stroke="#000000" stroke-width="2"/><path d="M187.0,347.0 L173.0,347.0" stroke="#000000" stroke-width="2"/><circle cx="180.0" cy="336.0" r="5" fill="#ffffff" stroke="#000000" stroke-width="2"/><path d="M550.0,185.0 L550.0,360.0" stroke="#000000" stroke-width="2" fill="none"/><path d="M543.0,192.0 L557.0,192.0" stroke="#000000" stroke-width="2"/><path d="M543.0,198.0 L557.0,198.0" stroke="#000000" stroke-width="2"/><path d="M550.0,344.0 L542.0,360.0" stroke="#000000" stroke-width="2"/><path d="M550.0,344.0 L550.0,360.0" stroke="#000000" stroke-width="2"/><path d="M550.0,344.0 L558.0,360.0" stroke="#000000" stroke-width="2"/><path d="M611.9811320754717,185.0 L853.0188679245283,360.0" stroke="#000000" stroke-width="2" fill="none"/><path d="M613.5330515855117,194.77709291325175 L621.7582249887234,183.44808048996003" stroke="#000000" stroke-width="2"/><path d="M618.3883426240652,198.30216722891393 L626.613516027277,186.97315480562222" stroke="#000000" stroke-width="2"/><path d="M840.0714251550521,350.59980182490085 L848.3187688369787,366.4737213847381" stroke="#000000" stroke-width="2"/><path d="M840.0714251550521,350.59980182490085 L853.0188679245283,360.0" stroke="#000000" stroke-width="2"/><path d="M840.0714251550521,350.59980182490085 L857.7189670120779,353.5262786152619" stroke="#000000" stroke-width="2"/><circle cx="833.597703770314" cy="345.8997027373512" r="5" fill="#ffffff" stroke="#000000" stroke-width="2"/><path d="M790.0,140.0 L675.0,140.0" stroke="#000000" stroke-width="2" fill="none"/><path d="M783.0,133.0 L783.0,147.0" stroke="#000000" stroke-width="2"/><path d="M777.0,133.0 L777.0,147.0" stroke="#000000" stroke-width="2"/><path d="M691.0,140.0 L675.0,132.0" stroke="#000000" stroke-width="2"/><path d="M691.0,140.0 L675.0,140.0" stroke="#000000" stroke-width="2"/><path d="M691.0,140.0 L675.0,148.0" stroke="#000000" stroke-width="2"/><circle cx="699.0" cy="140.0" r="5" fill="#ffffff" stroke="#000000" stroke-width="2"/><path d="M550.0,620.0 L550.0,450.0" stroke="#000000" stroke-width="2" fill="none"/><path d="M557.0,613.0 L543.0,613.0" stroke="#000000" stroke-width="2"/><path d="M557.0,607.0 L543.0,607.0" stroke="#000000" stroke-width="2"/><path d="M550.0,466.0 L558.0,450.0" stroke="#000000" stroke-width="2"/><path d="M550.0,466.0 L550.0,450.0" stroke="#000000" stroke-width="2"/><path d="M550.0,466.0 L542.0,450.0" stroke="#000000" stroke-width="2"/><circle cx="550.0" cy="474.0" r="5" fill="#ffffff" stroke="#000000" stroke-width="2"/><path d="M675.0,665.0 L790.0,665.0" stroke="#000000" stroke-width="2" fill="none"/><path d="M691.0,665.0 L675.0,657.0" stroke="#000000" stroke-width="2"/><path d="M691.0,665.0 L675.0,665.0" stroke="#000000" stroke-width="2"/><path d="M691.0,665.0 L675.0,673.0" stroke="#000000" stroke-width="2"/><circle cx="699.0" cy="665.0" r="5" fill="#ffffff" stroke="#000000" stroke-width="2"/><path d="M774.0,665.0 L790.0,673.0" stroke="#000000" stroke-width="2"/><path d="M774.0,665.0 L790.0,665.0" stroke="#000000" stroke-width="2"/><path d="M774.0,665.0 L790.0,657.0" stroke="#000000" stroke-width="2"/><circle cx="766.0" cy="665.0" r="5" fill="#ffffff" stroke="#000000" stroke-width="2"/><rect x="55" y="95" width="250" height="90" rx="0" fill="white" stroke="#000000" stroke-width="2"/><text x="67" y="120" font-family="Times New Roman" font-size="18" font-weight="bold" fill="#000000">Customer</text><rect x="55" y="360" width="250" height="90" rx="0" fill="white" stroke="#000000" stroke-width="2"/><text x="67" y="385" font-family="Times New Roman" font-size="18" font-weight="bold" fill="#000000">LoyaltyAccount</text><rect x="425" y="95" width="250" height="90" rx="0" fill="white" stroke="#000000" stroke-width="2"/><text x="437" y="120" font-family="Times New Roman" font-size="18" font-weight="bold" fill="#000000">Order</text><rect x="790" y="95" width="250" height="90" rx="0" fill="white" stroke="#000000" stroke-width="2"/><text x="802" y="120" font-family="Times New Roman" font-size="18" font-weight="bold" fill="#000000">Store</text><rect x="425" y="360" width="250" height="90" rx="0" fill="white" stroke="#000000" stroke-width="2"/><text x="437" y="385" font-family="Times New Roman" font-size="18" font-weight="bold" fill="#000000">OrderLine</text><rect x="790" y="360" width="250" height="90" rx="0" fill="white" stroke="#000000" stroke-width="2"/><text x="802" y="385" font-family="Times New Roman" font-size="18" font-weight="bold" fill="#000000">Payment</text><rect x="425" y="620" width="250" height="90" rx="0" fill="white" stroke="#000000" stroke-width="2"/><text x="437" y="645" font-family="Times New Roman" font-size="18" font-weight="bold" fill="#000000">Product</text><rect x="790" y="620" width="250" height="90" rx="0" fill="white" stroke="#000000" stroke-width="2"/><text x="802" y="645" font-family="Times New Roman" font-size="18" font-weight="bold" fill="#000000">Supplier</text></svg>