<svg xmlns="http://www.w3.org/2000/svg" width="1100" height="610" viewBox="0 0 1100 610"><rect width="100%" height="100%" fill="#ffffff"/><text x="25" y="35" font-family="Times New Roman" font-size="24" font-weight="bold" fill="#000000">Event topics remain separate</text><path d="M330.0,165.0 L400.0,165.0" stroke="#000000" stroke-width="2" fill="none"/><path d="M400.0,165.0 L388.0,160.0" stroke="#000000" stroke-width="2"/><path d="M400.0,165.0 L388.0,170.0" stroke="#000000" stroke-width="2"/><rect x="314.6" y="143.0" width="100.80000000000001" height="20" fill="#ffffff"/><text x="365.0" y="157.0" text-anchor="middle" font-family="Times New Roman" font-size="14" fill="#000000">durable send</text><path d="M700.0,165.0 L770.0,165.0" stroke="#000000" stroke-width="2" fill="none"/><path d="M770.0,165.0 L758.0,160.0" stroke="#000000" stroke-width="2"/><path d="M770.0,165.0 L758.0,170.0" stroke="#000000" stroke-width="2"/><rect x="705.6" y="143.0" width="58.800000000000004" height="20" fill="#ffffff"/><text x="735.0" y="157.0" text-anchor="middle" font-family="Times New Roman" font-size="14" fill="#000000">consume</text><path d="M770.0,227.83783783783784 L330.0,412.1621621621622" stroke="#000000" stroke-width="2" fill="none"/><path d="M330.0,412.1621621621622 L342.99997609969,412.1372341159499" stroke="#000000" stroke-width="2"/><path d="M330.0,412.1621621621622 L339.1361289367908,402.91385701741626" stroke="#000000" stroke-width="2"/><rect x="491.2" y="298.0" width="117.60000000000001" height="20" fill="#ffffff"/><text x="550.0" y="312.0" text-anchor="middle" font-family="Times New Roman" font-size="14" fill="#000000">footfall topic</text><path d="M830.483870967742,240.0 L639.516129032258,400.0" stroke="#000000" stroke-width="2" fill="none"/><path d="M639.516129032258,400.0 L651.925474119472,396.12596405457595" stroke="#000000" stroke-width="2"/><path d="M639.516129032258,400.0 L645.5032754933679,388.46075924277426" stroke="#000000" stroke-width="2"/><rect x="688.8" y="298.0" width="92.4" height="20" fill="#ffffff"/><text x="735.0" y="312.0" text-anchor="middle" font-family="Times New Roman" font-size="14" fill="#000000">stock topic</text><path d="M920.0,240.0 L920.0,400.0" stroke="#000000" stroke-width="2" fill="none"/><path d="M920.0,400.0 L925.0,388.0" stroke="#000000" stroke-width="2"/><path d="M920.0,400.0 L915.0,388.0" stroke="#000000" stroke-width="2"/><rect x="865.4" y="298.0" width="109.2" height="20" fill="#ffffff"/><text x="920.0" y="312.0" text-anchor="middle" font-family="Times New Roman" font-size="14" fill="#000000">payment topic</text><rect x="30" y="90" width="300" height="150" rx="0" fill="white" stroke="#000000" stroke-width="2"/><text x="42" y="115" font-family="Times New Roman" font-size="18" font-weight="bold" fill="#000000">Store edge</text><text x="42" y="137" font-family="Times New Roman" font-size="17" font-weight="normal" fill="#000000">Persist and sequence</text><text x="42" y="159" font-family="Times New Roman" font-size="17" font-weight="normal" fill="#000000">Footfall without person IDs</text><rect x="400" y="90" width="300" height="150" rx="0" fill="white" stroke="#000000" stroke-width="2"/><text x="412" y="115" font-family="Times New Roman" font-size="18" font-weight="bold" fill="#000000">Broker</text><text x="412" y="137" font-family="Times New Roman" font-size="17" font-weight="normal" fill="#000000">At-least-once delivery</text><text x="412" y="159" font-family="Times New Roman" font-size="17" font-weight="normal" fill="#000000">Retry and dead-letter</text><rect x="770" y="90" width="300" height="150" rx="0" fill="white" stroke="#000000" stroke-width="2"/><text x="782" y="115" font-family="Times New Roman" font-size="18" font-weight="bold" fill="#000000">Consumers</text><text x="782" y="137" font-family="Times New Roman" font-size="17" font-weight="normal" fill="#000000">Deduplication</text><text x="782" y="159" font-family="Times New Roman" font-size="17" font-weight="normal" fill="#000000">Event-time windows</text><rect x="30" y="400" width="300" height="150" rx="0" fill="white" stroke="#000000" stroke-width="2"/><text x="42" y="425" font-family="Times New Roman" font-size="18" font-weight="bold" fill="#000000">Traffic</text><text x="42" y="447" font-family="Times New Roman" font-size="17" font-weight="normal" fill="#000000">5-minute counts</text><text x="42" y="469" font-family="Times New Roman" font-size="17" font-weight="normal" fill="#000000">Late-correction counter</text><rect x="400" y="400" width="300" height="150" rx="0" fill="white" stroke="#000000" stroke-width="2"/><text x="412" y="425" font-family="Times New Roman" font-size="18" font-weight="bold" fill="#000000">Stock movements</text><text x="412" y="447" font-family="Times New Roman" font-size="17" font-weight="normal" fill="#000000">Sales / receipts / transfers</text><text x="412" y="469" font-family="Times New Roman" font-size="17" font-weight="normal" fill="#000000">Freshness and reconciliation</text><rect x="770" y="400" width="300" height="150" rx="0" fill="white" stroke="#000000" stroke-width="2"/><text x="782" y="425" font-family="Times New Roman" font-size="18" font-weight="bold" fill="#000000">Payment events</text><text x="782" y="447" font-family="Times New Roman" font-size="17" font-weight="normal" fill="#000000">Provider references</text><text x="782" y="469" font-family="Times New Roman" font-size="17" font-weight="normal" fill="#000000">Human investigation</text></svg>