<svg xmlns="http://www.w3.org/2000/svg" width="1100" height="590" viewBox="0 0 1100 590"><rect width="100%" height="100%" fill="#ffffff"/><text x="25" y="35" font-family="Times New Roman" font-size="24" font-weight="bold" fill="#000000">Central reporting with separate fact grains</text><path d="M330.0,167.5 L400.0,167.5" stroke="#000000" stroke-width="2" fill="none"/><path d="M400.0,167.5 L388.0,162.5" stroke="#000000" stroke-width="2"/><path d="M400.0,167.5 L388.0,172.5" stroke="#000000" stroke-width="2"/><rect x="344.0" y="145.5" width="42.0" height="20" fill="#ffffff"/><text x="365.0" y="159.5" text-anchor="middle" font-family="Times New Roman" font-size="14" fill="#000000">batch</text><path d="M700.0,167.5 L770.0,167.5" stroke="#000000" stroke-width="2" fill="none"/><path d="M770.0,167.5 L758.0,162.5" stroke="#000000" stroke-width="2"/><path d="M770.0,167.5 L758.0,172.5" stroke="#000000" stroke-width="2"/><rect x="701.4" y="145.5" width="67.2" height="20" fill="#ffffff"/><text x="735.0" y="159.5" text-anchor="middle" font-family="Times New Roman" font-size="14" fill="#000000">validate</text><path d="M920.0,245.0 L920.0,390.0" stroke="#000000" stroke-width="2" fill="none"/><path d="M920.0,390.0 L925.0,378.0" stroke="#000000" stroke-width="2"/><path d="M920.0,390.0 L915.0,378.0" stroke="#000000" stroke-width="2"/><rect x="903.2" y="295.5" width="33.6" height="20" fill="#ffffff"/><text x="920.0" y="309.5" text-anchor="middle" font-family="Times New Roman" font-size="14" fill="#000000">keys</text><path d="M824.4166666666666,245.0 L645.5833333333334,390.0" stroke="#000000" stroke-width="2" fill="none"/><path d="M645.5833333333334,390.0 L658.0534121100735,386.3261552425429" stroke="#000000" stroke-width="2"/><path d="M645.5833333333334,390.0 L651.7553925258613,378.5585977553478" stroke="#000000" stroke-width="2"/><rect x="718.2" y="295.5" width="33.6" height="20" fill="#ffffff"/><text x="735.0" y="309.5" text-anchor="middle" font-family="Times New Roman" font-size="14" fill="#000000">keys</text><path d="M454.41666666666663,245.0 L275.58333333333337,390.0" stroke="#000000" stroke-width="2" fill="none"/><path d="M275.58333333333337,390.0 L288.0534121100735,386.3261552425429" stroke="#000000" stroke-width="2"/><path d="M275.58333333333337,390.0 L281.75539252586134,378.5585977553478" stroke="#000000" stroke-width="2"/><rect x="310.4" y="295.5" width="109.2" height="20" fill="#ffffff"/><text x="365.0" y="309.5" text-anchor="middle" font-family="Times New Roman" font-size="14" fill="#000000">provider feed</text><rect x="30" y="90" width="300" height="155" rx="0" fill="white" stroke="#000000" stroke-width="2"/><text x="42" y="115" font-family="Times New Roman" font-size="18" font-weight="bold" fill="#000000">Local sources</text><text x="42" y="137" font-family="Times New Roman" font-size="17" font-weight="normal" fill="#000000">POS / web / loyalty</text><text x="42" y="159" font-family="Times New Roman" font-size="17" font-weight="normal" fill="#000000">CRM / Odoo</text><rect x="400" y="90" width="300" height="155" rx="0" fill="white" stroke="#000000" stroke-width="2"/><text x="412" y="115" font-family="Times New Roman" font-size="18" font-weight="bold" fill="#000000">Restricted intake</text><text x="412" y="137" font-family="Times New Roman" font-size="17" font-weight="normal" fill="#000000">Manifest and immutable files</text><text x="412" y="159" font-family="Times New Roman" font-size="17" font-weight="normal" fill="#000000">Contracts and quarantine</text><rect x="770" y="90" width="300" height="155" rx="0" fill="white" stroke="#000000" stroke-width="2"/><text x="782" y="115" font-family="Times New Roman" font-size="18" font-weight="bold" fill="#000000">Central dimensions</text><text x="782" y="137" font-family="Times New Roman" font-size="17" font-weight="normal" fill="#000000">Date / Customer</text><text x="782" y="159" font-family="Times New Roman" font-size="17" font-weight="normal" fill="#000000">Product SCD2 / Store SCD2</text><rect x="770" y="390" width="300" height="155" rx="0" fill="white" stroke="#000000" stroke-width="2"/><text x="782" y="415" font-family="Times New Roman" font-size="18" font-weight="bold" fill="#000000">Sales fact</text><text x="782" y="437" font-family="Times New Roman" font-size="17" font-weight="normal" fill="#000000">Source order line</text><text x="782" y="459" font-family="Times New Roman" font-size="17" font-weight="normal" fill="#000000">Signed quantity and amount</text><rect x="400" y="390" width="300" height="155" rx="0" fill="white" stroke="#000000" stroke-width="2"/><text x="412" y="415" font-family="Times New Roman" font-size="18" font-weight="bold" fill="#000000">Inventory fact</text><text x="412" y="437" font-family="Times New Roman" font-size="17" font-weight="normal" fill="#000000">Store / product / snapshot</text><text x="412" y="459" font-family="Times New Roman" font-size="17" font-weight="normal" fill="#000000">Comparable units</text><rect x="30" y="390" width="300" height="155" rx="0" fill="white" stroke="#000000" stroke-width="2"/><text x="42" y="415" font-family="Times New Roman" font-size="18" font-weight="bold" fill="#000000">Payment fact</text><text x="42" y="437" font-family="Times New Roman" font-size="17" font-weight="normal" fill="#000000">Provider event grain</text><text x="42" y="459" font-family="Times New Roman" font-size="17" font-weight="normal" fill="#000000">Settlement state</text></svg>